<svg width="133" height="55" viewBox="0 0 133 55" fill="none" xmlns="http://www.w3.org/2000/svg">
<rect width="133" height="55" fill="#0A214A"/>
<path d="M32.2387 47.1306C22.8385 49.3699 7.36476 48.2049 8.64257 37.2326C9.66299 28.4704 18.687 30.0773 27.3694 30.4104C36.7696 28.1711 39.2535 15.074 41.5134 22.8339C43.7733 30.5938 41.639 44.8913 32.2387 47.1306Z" fill="#A2D6F6"/>
<path d="M6.93906 37.2531C7.05227 36.2329 7.94853 35.506 8.94093 35.6295C9.93332 35.753 10.646 36.6801 10.5328 37.7003C10.4196 38.7205 9.52338 39.4474 8.53098 39.3239C7.53859 39.2004 6.82586 38.2733 6.93906 37.2531Z" fill="#A2D6F6"/>
<path d="M7.47208 40.7882C7.58529 39.768 8.48155 39.0411 9.47395 39.1646C10.4663 39.2881 11.1791 40.2152 11.0659 41.2354C10.9527 42.2556 10.0564 42.9825 9.064 42.859C8.07161 42.7355 7.35888 41.8084 7.47208 40.7882Z" fill="#A2D6F6"/>
<path d="M40.9301 21.57C40.3652 23.6927 39.7446 26.2094 38.4806 25.8551C37.2166 25.5008 36.7245 25.6396 37.2894 23.5169C36.3913 20.6533 37.9316 16.5214 39.1956 16.8757C40.4596 17.23 41.495 19.4472 40.9301 21.57Z" fill="#A2D6F6"/>
<path d="M40.1224 20.817C41.7589 19.326 43.8516 18.8968 44.7965 19.8582C45.7414 20.8197 43.1808 22.3859 41.5443 23.8768C40.8253 26.7589 38.8343 27.1018 37.8894 26.1403C36.9445 25.1789 38.4858 22.3079 40.1224 20.817Z" fill="#A2D6F6"/>
<path d="M25.2734 49.8881C23.4178 48.9666 22.2675 47.5189 22.7041 46.6545C23.1408 45.7901 24.7091 46.4102 26.5648 47.3316C28.4204 48.253 30.241 48.3739 29.424 49.9912C28.9873 50.8557 27.1291 50.8095 25.2734 49.8881Z" fill="#A2D6F6"/>
<path d="M19.1333 28.3399C20.4605 26.8715 22.1629 26.2132 22.9359 26.8697C23.7089 27.5263 22.7465 28.813 21.4194 30.2815C20.0923 31.75 19.5763 33.416 18.13 32.1876C17.357 31.5311 17.8062 29.8084 19.1333 28.3399Z" fill="#A2D6F6"/>
<path d="M14.2022 42.9949C13.2469 43.3964 12.1469 42.9474 11.7454 41.9921C11.3439 41.0368 11.7928 39.9369 12.7481 39.5354C13.7034 39.1338 14.8034 39.5828 15.2049 40.5381C15.6064 41.4934 15.1575 42.5933 14.2022 42.9949Z" fill="#A2D6F6"/>
<path d="M12.52 40.4454C11.9787 40.6729 11.7243 41.2962 11.9518 41.8376C12.1793 42.3789 12.8026 42.6333 13.344 42.4058C13.8853 42.1783 14.1397 41.555 13.9122 41.0136C13.6846 40.4723 13.0614 40.2179 12.52 40.4454Z" fill="#A2D6F6"/>
<path d="M13.8677 37.9715C12.9124 38.373 11.8125 37.9241 11.411 36.9687C11.0094 36.0134 11.4584 34.9135 12.4137 34.512C13.369 34.1104 14.4689 34.5594 14.8705 35.5147C15.272 36.47 14.8231 37.5699 13.8677 37.9715Z" fill="#A2D6F6"/>
<path d="M12.1856 35.4219C11.6442 35.6494 11.3898 36.2727 11.6173 36.8141C11.8449 37.3554 12.4682 37.6098 13.0095 37.3823C13.5509 37.1547 13.8053 36.5314 13.5777 35.9901C13.3502 35.4488 12.7269 35.1944 12.1856 35.4219Z" fill="#A2D6F6"/>
<path d="M11.1651 39.5893C10.8979 40.2264 10.1648 40.5262 9.52774 40.2589C8.89067 39.9917 8.59086 39.2586 8.8581 38.6216C9.12533 37.9845 9.85841 37.6847 10.4955 37.9519C11.1325 38.2191 11.4324 38.9522 11.1651 39.5893Z" fill="#A2D6F6"/>
<circle cx="9.95587" cy="38.645" r="1.58917" fill="#0A214A"/>
<circle cx="13.9285" cy="35.4665" r="1.58917" fill="#0A214A"/>
<circle cx="13.9285" cy="41.0285" r="1.58917" fill="#0A214A"/>
<path d="M12.7613 6.48002C22.1615 4.2407 37.6352 5.4057 36.3574 16.378C35.337 25.1402 26.313 23.5333 17.6306 23.2002C8.23039 25.4395 5.74654 38.5366 3.48664 30.7767C1.22673 23.0168 3.361 8.71934 12.7613 6.48002Z" fill="#FEFEFE"/>
<path d="M38.0609 16.3575C37.9477 17.3777 37.0515 18.1046 36.0591 17.9811C35.0667 17.8576 34.354 16.9305 34.4672 15.9103C34.5804 14.8901 35.4766 14.1632 36.469 14.2867C37.4614 14.4101 38.1741 15.3373 38.0609 16.3575Z" fill="#FEFEFE"/>
<path d="M37.5279 12.8224C37.4147 13.8426 36.5184 14.5695 35.5261 14.446C34.5337 14.3225 33.8209 13.3954 33.9341 12.3752C34.0473 11.355 34.9436 10.6281 35.936 10.7516C36.9284 10.8751 37.6411 11.8022 37.5279 12.8224Z" fill="#FEFEFE"/>
<path d="M4.0699 32.0406C4.63478 29.9179 5.25543 27.4012 6.51943 27.7555C7.78343 28.1098 8.2755 27.971 7.71062 30.0937C8.60869 32.9573 7.06842 37.0892 5.80442 36.7349C4.54042 36.3806 3.50502 34.1634 4.0699 32.0406Z" fill="#FEFEFE"/>
<path d="M4.87762 32.7936C3.24107 34.2845 1.14839 34.7138 0.203484 33.7523C-0.741419 32.7909 1.8192 31.2247 3.45574 29.7338C4.1747 26.8517 6.16573 26.5088 7.11063 27.4703C8.05554 28.4317 6.51416 31.3027 4.87762 32.7936Z" fill="#FEFEFE"/>
<path d="M19.7266 3.72254C21.5822 4.64396 22.7325 6.09168 22.2959 6.95611C21.8592 7.82054 20.2909 7.20044 18.4352 6.27902C16.5796 5.3576 14.759 5.23673 15.576 3.61936C16.0127 2.75493 17.8709 2.80112 19.7266 3.72254Z" fill="#FEFEFE"/>
<path d="M25.8667 25.2706C24.5395 26.7391 22.8371 27.3974 22.0641 26.7409C21.2911 26.0843 22.2535 24.7976 23.5806 23.3291C24.9077 21.8606 25.4237 20.1946 26.87 21.423C27.643 22.0795 27.1938 23.8022 25.8667 25.2706Z" fill="#FEFEFE"/>
<path d="M30.7978 10.6157C31.7531 10.2142 32.8531 10.6631 33.2546 11.6185C33.6561 12.5738 33.2072 13.6737 32.2519 14.0752C31.2966 14.4768 30.1966 14.0278 29.7951 13.0725C29.3936 12.1172 29.8425 11.0173 30.7978 10.6157Z" fill="#FEFEFE"/>
<path d="M32.48 13.1652C33.0213 12.9377 33.2757 12.3144 33.0482 11.773C32.8207 11.2317 32.1974 10.9773 31.656 11.2048C31.1147 11.4323 30.8603 12.0556 31.0878 12.597C31.3154 13.1383 31.9386 13.3927 32.48 13.1652Z" fill="#FEFEFE"/>
<path d="M31.1323 15.6391C32.0876 15.2376 33.1875 15.6865 33.589 16.6419C33.9906 17.5972 33.5416 18.6971 32.5863 19.0986C31.631 19.5002 30.5311 19.0512 30.1295 18.0959C29.728 17.1406 30.1769 16.0407 31.1323 15.6391Z" fill="#FEFEFE"/>
<path d="M32.8144 18.1887C33.3558 17.9612 33.6102 17.3379 33.3827 16.7965C33.1551 16.2552 32.5318 16.0008 31.9905 16.2283C31.4491 16.4558 31.1947 17.0791 31.4223 17.6205C31.6498 18.1618 32.2731 18.4162 32.8144 18.1887Z" fill="#FEFEFE"/>
<path d="M33.8349 14.0213C34.1021 13.3842 34.8352 13.0844 35.4723 13.3517C36.1093 13.6189 36.4091 14.352 36.1419 14.989C35.8747 15.6261 35.1416 15.9259 34.5045 15.6587C33.8675 15.3915 33.5676 14.6584 33.8349 14.0213Z" fill="#FEFEFE"/>
<circle cx="35.0441" cy="14.9656" r="1.58917" transform="rotate(-180 35.0441 14.9656)" fill="#0A214A"/>
<circle cx="31.0715" cy="18.1441" r="1.58917" transform="rotate(-180 31.0715 18.1441)" fill="#0A214A"/>
<circle cx="31.0715" cy="12.5817" r="1.58917" transform="rotate(-180 31.0715 12.5817)" fill="#0A214A"/>
<path d="M59.2014 21H56.6263V15.5244H52.8118V21H50.2278V8.20312H52.8118V13.3799H56.6263V8.20312H59.2014V21ZM68.6311 18.3809H65.1066L64.4211 21H61.6877L65.6867 8.20312H68.051L72.0764 21H69.3166L68.6311 18.3809ZM65.6691 16.2275H68.0598L66.8645 11.666L65.6691 16.2275ZM81.5939 10.3564H78.4298V21H75.837V10.3564H72.7257V8.20312H81.5939V10.3564ZM89.2129 18.3809H85.6885L85.003 21H82.2696L86.2686 8.20312H88.6329L92.6582 21H89.8985L89.2129 18.3809ZM86.251 16.2275H88.6416L87.4463 11.666L86.251 16.2275ZM104.074 8.20312V21H101.481V10.3564H99.1084L98.9326 14.8916C98.8623 16.3857 98.6923 17.5723 98.4228 18.4512C98.1591 19.3242 97.7695 19.9658 97.2539 20.376C96.7441 20.7861 96.0556 20.9941 95.1884 21H94.5556V18.8555L94.8545 18.8291C95.3935 18.7646 95.7802 18.4131 96.0146 17.7744C96.2548 17.1299 96.4043 15.9932 96.4629 14.3643L96.6298 8.20312H104.074ZM109.821 12.7998H111.35C112.645 12.7998 113.677 13.1689 114.444 13.9072C115.212 14.6396 115.596 15.6211 115.596 16.8516C115.596 18.0762 115.221 19.0693 114.471 19.8311C113.721 20.5869 112.727 20.9766 111.491 21H107.228V8.20312H109.821V12.7998ZM109.821 14.9443V18.8555H111.386C111.89 18.8555 112.285 18.668 112.572 18.293C112.865 17.9121 113.012 17.4258 113.012 16.834C113.012 16.2773 112.868 15.8262 112.581 15.4805C112.3 15.1289 111.907 14.9502 111.403 14.9443H109.821ZM122.986 21V16.3945H121.633L119.743 21H116.957L119.224 15.4629C118.17 14.7305 117.642 13.6289 117.642 12.1582C117.642 10.8926 117.997 9.91699 118.706 9.23145C119.421 8.5459 120.431 8.20312 121.738 8.20312H125.579V21H122.986ZM120.235 12.3604C120.235 13.0693 120.361 13.585 120.613 13.9072C120.865 14.2236 121.258 14.3818 121.791 14.3818H122.986V10.3564H121.703C120.724 10.3564 120.235 11.0244 120.235 12.3604ZM71.7726 45.1465H69.3996V42H63.3439V45.1377H60.9005L60.7599 39.8555H61.6125C61.9875 39.5098 62.2834 38.9531 62.5002 38.1855C62.717 37.418 62.8693 36.4131 62.9572 35.1709L63.3175 29.2031H70.674V39.8555H72.0011L71.7726 45.1465ZM64.3898 39.8555H68.0988V31.3564H65.7785L65.5675 34.8809C65.4211 36.9961 65.0285 38.6543 64.3898 39.8555ZM77.0362 33.7998H78.5655C79.8604 33.7998 80.8917 34.1689 81.6593 34.9072C82.4268 35.6396 82.8106 36.6211 82.8106 37.8516C82.8106 39.0762 82.4356 40.0693 81.6856 40.8311C80.9356 41.5869 79.9425 41.9766 78.7061 42H74.4434V29.2031H77.0362V33.7998ZM86.0626 42H83.4786V29.2031H86.0626V42ZM77.0362 35.9443V39.8555H78.6007C79.1046 39.8555 79.5001 39.668 79.7872 39.293C80.0802 38.9121 80.2266 38.4258 80.2266 37.834C80.2266 37.2773 80.0831 36.8262 79.796 36.4805C79.5147 36.1289 79.1221 35.9502 78.6182 35.9443H77.0362ZM98.1992 42H95.624V36.5244H91.8096V42H89.2256V29.2031H91.8096V34.3799H95.624V29.2031H98.1992V42ZM107.972 36.4629H103.946V39.8555H108.71V42H101.362V29.2031H108.692V31.3564H103.946V34.3799H107.972V36.4629ZM113.868 37.5V42H111.284V29.2031H115.643C116.909 29.2031 117.917 29.5957 118.667 30.3809C119.423 31.166 119.801 32.1855 119.801 33.4395C119.801 34.6934 119.429 35.6836 118.684 36.4102C117.94 37.1367 116.909 37.5 115.591 37.5H113.868ZM113.868 35.3467H115.643C116.136 35.3467 116.516 35.1855 116.786 34.8633C117.056 34.541 117.19 34.0723 117.19 33.457C117.19 32.8184 117.053 32.3115 116.777 31.9365C116.502 31.5557 116.133 31.3623 115.67 31.3564H113.868V35.3467Z" fill="white"/>
</svg>
