<svg width="171" height="29" viewBox="0 0 171 29" fill="none" xmlns="http://www.w3.org/2000/svg">
<path d="M3.62202 3.94292C9.63399 0.227416 20.8804 -2.84146 23.032 4.36456C24.7503 10.1191 17.9335 11.3262 11.7124 13.2495C5.7004 16.965 7.59213 25.8019 3.83736 21.4827C0.0825975 17.1635 -2.38995 7.65842 3.62202 3.94292Z" fill="white"/>
<path d="M24.2289 3.93295C24.4329 4.60158 24.0026 5.27832 23.2678 5.4445C22.5329 5.61068 21.7718 5.20337 21.5678 4.53474C21.3638 3.86611 21.7941 3.18936 22.5289 3.02318C23.2638 2.857 24.0249 3.26432 24.2289 3.93295Z" fill="white"/>
<path d="M22.8687 1.84346C23.0728 2.51209 22.6424 3.18884 21.9076 3.35502C21.1727 3.5212 20.4116 3.11388 20.2076 2.44525C20.0036 1.77662 20.4339 1.09988 21.1688 0.933698C21.9036 0.767518 22.6647 1.17483 22.8687 1.84346Z" fill="white"/>
<path d="M4.60115 22.1332C4.4091 20.6611 4.14679 18.9278 5.13759 18.8399C6.12839 18.752 6.43707 18.5439 6.62912 20.0161C8.05995 21.5942 8.12268 24.568 7.13188 24.6559C6.14108 24.7438 4.7932 23.6054 4.60115 22.1332Z" fill="white"/>
<path d="M5.38064 22.4082C4.64041 23.7466 3.28275 24.5303 2.34822 24.1584C1.41369 23.7866 2.78522 22.1739 3.52545 20.8354C3.23083 18.8484 4.54078 18.144 5.47531 18.5159C6.40984 18.8877 6.12088 21.0697 5.38064 22.4082Z" fill="white"/>
<path d="M7.77147 0.500031C9.33771 0.623028 10.5526 1.24985 10.4849 1.90009C10.4173 2.55032 9.13769 2.54603 7.57145 2.42304C6.00521 2.30004 4.68654 2.67128 4.81309 1.45468C4.88072 0.804443 6.20523 0.377034 7.77147 0.500031Z" fill="white"/>
<path d="M18.1022 12.5273C17.5741 13.7757 16.5556 14.6073 15.8273 14.3848C15.0989 14.1623 15.4201 13.1176 15.9482 11.8692C16.4763 10.6208 16.3769 9.44763 17.7396 9.86398C18.4679 10.0865 18.6303 11.2789 18.1022 12.5273Z" fill="white"/>
<path d="M28.8645 24.3875C22.8991 28.1617 11.6917 31.3405 9.45104 24.1557C7.66168 18.4182 14.4629 17.1444 20.6597 15.1603C26.6251 11.3861 24.6242 2.56795 28.4321 6.85034C32.2399 11.1327 34.8299 20.6133 28.8645 24.3875Z" fill="white"/>
<path d="M8.25971 24.5987C8.04743 23.9321 8.46934 23.2512 9.20207 23.0778C9.93479 22.9044 10.7009 23.3043 10.9131 23.9709C11.1254 24.6375 10.7035 25.3185 9.97079 25.4918C9.23806 25.6652 8.47198 25.2653 8.25971 24.5987Z" fill="white"/>
<path d="M9.64568 26.675C9.4334 26.0084 9.85531 25.3275 10.588 25.1541C11.3208 24.9808 12.0868 25.3806 12.2991 26.0472C12.5114 26.7139 12.0895 27.3948 11.3568 27.5682C10.624 27.7415 9.85796 27.3417 9.64568 26.675Z" fill="white"/>
<path d="M27.6608 6.20737C27.8711 7.67758 28.1548 9.40822 27.1652 9.50582C26.1756 9.60342 25.8695 9.81452 25.6592 8.34431C24.209 6.78023 24.1095 3.80718 25.0991 3.70958C26.0887 3.61198 27.4506 4.73715 27.6608 6.20737Z" fill="white"/>
<path d="M26.8776 5.94057C27.6012 4.59489 28.9491 3.79801 29.8881 4.16069C30.8272 4.52336 29.4757 6.14946 28.7521 7.49513C29.0713 9.47915 27.7702 10.1963 26.8312 9.83367C25.8921 9.47099 26.154 7.28624 26.8776 5.94057Z" fill="white"/>
<path d="M24.7584 27.8709C23.1908 27.7633 21.9683 27.1484 22.0279 26.4975C22.0875 25.8466 23.367 25.8384 24.9346 25.946C26.5022 26.0537 27.8162 25.6696 27.7047 26.8874C27.6451 27.5383 26.326 27.9786 24.7584 27.8709Z" fill="white"/>
<path d="M14.2798 15.9453C14.7924 14.6918 15.8005 13.8502 16.5315 14.0656C17.2625 14.281 16.9543 15.3288 16.4417 16.5823C15.9291 17.8358 16.0431 19.008 14.6753 18.605C13.9443 18.3896 13.7672 17.1988 14.2798 15.9453Z" fill="white"/>
<path d="M22.5014 3.43585C22.4958 3.90175 22.0664 4.27437 21.5423 4.26811C21.0182 4.26185 20.5978 3.87909 20.6033 3.41319C20.6089 2.94729 21.0383 2.57467 21.5624 2.58093C22.0866 2.58718 22.507 2.96994 22.5014 3.43585Z" fill="white"/>
<path d="M11.8976 24.9924C11.8921 25.4583 11.4627 25.831 10.9385 25.8247C10.4144 25.8184 9.99401 25.4357 9.99957 24.9698C10.0051 24.5039 10.4345 24.1313 10.9587 24.1375C11.4828 24.1438 11.9032 24.5265 11.8976 24.9924Z" fill="white"/>
<path d="M13.3343 23.2978C12.7778 23.7901 11.8764 23.7871 11.3209 23.2911C10.7655 22.795 10.7663 21.9937 11.3228 21.5014C11.8793 21.0091 12.7807 21.0121 13.3361 21.5081C13.8916 22.0042 13.8907 22.8054 13.3343 23.2978Z" fill="white"/>
<path d="M11.4231 22.128C11.1077 22.407 11.1072 22.8611 11.422 23.1422C11.7367 23.4233 12.2475 23.425 12.5629 23.146C12.8782 22.867 12.8787 22.413 12.564 22.1318C12.2492 21.8507 11.7384 21.849 11.4231 22.128Z" fill="white"/>
<path d="M21.2208 6.68666C20.6644 7.17901 19.763 7.176 19.2075 6.67994C18.6521 6.18387 18.6529 5.38261 19.2094 4.89026C19.7659 4.39791 20.6673 4.40092 21.2227 4.89698C21.7782 5.39304 21.7773 6.19431 21.2208 6.68666Z" fill="white"/>
<path d="M19.3095 5.51709C18.9942 5.79608 18.9937 6.25014 19.3084 6.53124C19.6232 6.81234 20.134 6.81404 20.4493 6.53505C20.7647 6.25605 20.7651 5.802 20.4504 5.5209C20.1356 5.23979 19.6249 5.23809 19.3095 5.51709Z" fill="white"/>
<path d="M15.0062 26.3551C14.4498 26.8475 13.5484 26.8445 12.9929 26.3484C12.4375 25.8523 12.4383 25.0511 12.9948 24.5587C13.5513 24.0664 14.4527 24.0694 15.0081 24.5654C15.5636 25.0615 15.5627 25.8628 15.0062 26.3551Z" fill="white"/>
<path d="M13.0949 25.1853C12.7796 25.4643 12.7791 25.9184 13.0938 26.1995C13.4086 26.4806 13.9194 26.4823 14.2347 26.2033C14.5501 25.9243 14.5505 25.4702 14.2358 25.1891C13.921 24.908 13.4102 24.9063 13.0949 25.1853Z" fill="white"/>
<path d="M19.9468 2.73004C19.9385 3.42889 19.2944 3.98782 18.5082 3.97843C17.722 3.96904 17.0914 3.3949 17.0997 2.69605C17.1081 1.99719 17.7522 1.43827 18.5384 1.44766C19.3246 1.45704 19.9552 2.03118 19.9468 2.73004Z" fill="white"/>
<path d="M17.6647 3.0826C17.6599 3.47862 18.0173 3.80397 18.4628 3.80929C18.9083 3.81461 19.2733 3.49788 19.278 3.10187C19.2828 2.70585 18.9254 2.3805 18.4799 2.37518C18.0344 2.36986 17.6694 2.68659 17.6647 3.0826Z" fill="white"/>
<path d="M43.6161 2.78128L44.9755 2.50003C45.2567 4.70316 45.4286 7.76566 45.4911 11.6875C45.5692 15.5938 45.6473 18.1797 45.7255 19.4453C45.5848 19.9297 45.3114 20.1719 44.9052 20.1719C44.6239 20.1719 44.3505 20.0547 44.0848 19.8203C43.8348 19.586 43.6786 19.3047 43.6161 18.9766C43.6317 18.4141 43.6395 17.4766 43.6395 16.1641V11.5469C43.2958 11.5625 42.8114 11.6016 42.1864 11.6641C41.577 11.711 41.0145 11.75 40.4989 11.7813C39.9989 11.8125 39.5223 11.8282 39.0692 11.8282C38.663 11.8282 38.3661 11.8203 38.1786 11.8047C38.2098 12.7578 38.2645 14.1094 38.3427 15.8594C38.4208 17.5938 38.4755 18.7891 38.5067 19.4453C38.3661 19.9297 38.0927 20.1719 37.6864 20.1719C37.4052 20.1719 37.1317 20.0547 36.8661 19.8203C36.6161 19.586 36.4598 19.3047 36.3973 18.9766C36.4442 17.6328 36.4833 15.0235 36.5145 11.1485C36.5614 7.27347 36.6395 4.39066 36.7489 2.50003L37.8036 2.73441C37.8036 2.78128 37.8036 2.85941 37.8036 2.96878C37.8192 3.06253 37.827 3.14066 37.827 3.20316C38.0302 7.04691 38.1473 9.45316 38.1786 10.4219C38.7098 10.375 39.2723 10.3282 39.8661 10.2813C40.4755 10.2188 41.1395 10.1563 41.8583 10.0938C42.5927 10.0157 43.163 9.96097 43.5692 9.92972C43.5848 9.92972 43.5927 9.85159 43.5927 9.69534C43.5927 9.53909 43.5927 8.90628 43.5927 7.79691C43.6083 6.68753 43.6161 5.01566 43.6161 2.78128Z" fill="white"/>
<path d="M48.4911 9.50784L48.0223 8.31253C48.4286 7.90628 48.9442 7.58597 49.5692 7.35159C50.1942 7.10159 50.8114 6.97659 51.4208 6.97659C54.0614 6.97659 55.3817 9.25784 55.3817 13.8203C55.3817 14.4453 55.3427 15.3672 55.2645 16.586C55.202 17.8047 55.1708 18.7188 55.1708 19.3282C55.0458 19.8125 54.8036 20.0547 54.4442 20.0547C54.163 20.0547 53.9052 19.9141 53.6708 19.6328C53.4364 19.3516 53.3192 19.0391 53.3192 18.6953C53.3192 18.586 53.327 18.5078 53.3427 18.461C52.3739 19.3985 51.3427 19.8672 50.2489 19.8672C49.4208 19.8672 48.6942 19.5703 48.0692 18.9766C47.4598 18.3672 47.1552 17.6328 47.1552 16.7735C47.1552 15.3203 47.7177 14.0078 48.8427 12.836C49.9833 11.6641 51.2723 11.0782 52.7098 11.0782C52.7723 11.0782 52.8348 11.086 52.8973 11.1016C52.9598 11.1016 53.0302 11.1094 53.1083 11.125C53.202 11.1407 53.2723 11.1485 53.3192 11.1485C53.1942 9.32034 52.4677 8.40628 51.1395 8.40628C50.3583 8.40628 49.4755 8.77347 48.4911 9.50784ZM53.3895 16.8438C53.4208 15.75 53.4364 14.9219 53.4364 14.3594C53.4364 13.8907 53.4208 13.2344 53.3895 12.3907H53.202C52.0927 12.4063 51.077 12.8203 50.1552 13.6328C49.2489 14.4453 48.7958 15.4297 48.7958 16.586C48.7958 17.086 48.9442 17.4844 49.2411 17.7813C49.5536 18.0782 49.9286 18.2266 50.3661 18.2266C51.0536 18.2266 52.0614 17.7657 53.3895 16.8438Z" fill="white"/>
<path d="M56.5302 8.87503L56.3192 7.84378C58.413 7.71878 61.7098 7.54691 66.2098 7.32816C66.5848 7.34378 66.9052 7.48441 67.1708 7.75003C67.4364 8.01566 67.5692 8.29691 67.5692 8.59378C67.5692 9.06253 67.2567 9.32816 66.6317 9.39066L62.2489 9.17972C62.327 10.3516 62.3661 12.0625 62.3661 14.3125C62.3817 16.5469 62.413 18.1797 62.4598 19.211C62.3192 19.6641 62.0458 19.8907 61.6395 19.8907C61.3739 19.8907 61.1161 19.7813 60.8661 19.5625C60.6161 19.3438 60.4598 19.0782 60.3973 18.7657C60.6161 14.9219 60.8427 11.6953 61.077 9.08597L56.5302 8.87503Z" fill="white"/>
<path d="M69.3739 9.50784L68.9052 8.31253C69.3114 7.90628 69.827 7.58597 70.452 7.35159C71.077 7.10159 71.6942 6.97659 72.3036 6.97659C74.9442 6.97659 76.2645 9.25784 76.2645 13.8203C76.2645 14.4453 76.2255 15.3672 76.1473 16.586C76.0848 17.8047 76.0536 18.7188 76.0536 19.3282C75.9286 19.8125 75.6864 20.0547 75.327 20.0547C75.0458 20.0547 74.788 19.9141 74.5536 19.6328C74.3192 19.3516 74.202 19.0391 74.202 18.6953C74.202 18.586 74.2098 18.5078 74.2255 18.461C73.2567 19.3985 72.2255 19.8672 71.1317 19.8672C70.3036 19.8672 69.577 19.5703 68.952 18.9766C68.3427 18.3672 68.038 17.6328 68.038 16.7735C68.038 15.3203 68.6005 14.0078 69.7255 12.836C70.8661 11.6641 72.1552 11.0782 73.5927 11.0782C73.6552 11.0782 73.7177 11.086 73.7802 11.1016C73.8427 11.1016 73.913 11.1094 73.9911 11.125C74.0848 11.1407 74.1552 11.1485 74.202 11.1485C74.077 9.32034 73.3505 8.40628 72.0223 8.40628C71.2411 8.40628 70.3583 8.77347 69.3739 9.50784ZM74.2723 16.8438C74.3036 15.75 74.3192 14.9219 74.3192 14.3594C74.3192 13.8907 74.3036 13.2344 74.2723 12.3907H74.0848C72.9755 12.4063 71.9598 12.8203 71.038 13.6328C70.1317 14.4453 69.6786 15.4297 69.6786 16.586C69.6786 17.086 69.827 17.4844 70.1239 17.7813C70.4364 18.0782 70.8114 18.2266 71.2489 18.2266C71.9364 18.2266 72.9442 17.7657 74.2723 16.8438Z" fill="white"/>
<path d="M75.6552 21.7422L75.2802 20.7344C75.7958 20.5313 76.2645 20.211 76.6864 19.7735C77.0927 19.336 77.4286 18.8828 77.6942 18.4141C77.9598 17.9297 78.1864 17.3282 78.3739 16.6094C78.5614 15.8907 78.6942 15.2657 78.7723 14.7344C78.8661 14.1875 78.9364 13.5157 78.9833 12.7188C79.0302 11.9219 79.0536 11.3282 79.0536 10.9375C79.0692 10.5313 79.077 9.99222 79.077 9.32034C79.077 8.36722 79.163 7.79691 79.3348 7.60941C79.5536 7.37503 80.7645 7.25784 82.9677 7.25784C84.702 7.25784 85.6864 7.25003 85.9208 7.23441C85.952 13.5782 86.0302 17.6953 86.1552 19.586C85.9989 20.0547 85.7255 20.2891 85.3348 20.2891C85.0692 20.2891 84.8114 20.1797 84.5614 19.961C84.3114 19.7422 84.1552 19.4766 84.0927 19.1641C84.077 18.5547 84.0692 17.6485 84.0692 16.4453C84.0692 15.8516 84.0692 14.9532 84.0692 13.75C84.0848 12.5469 84.0927 11.6407 84.0927 11.0313C84.0927 9.90628 84.0848 9.06253 84.0692 8.50003C83.413 8.60941 82.7645 8.67191 82.1239 8.68753C81.4833 8.70316 81.0302 8.72659 80.7645 8.75784C80.7177 9.27347 80.6786 10.0391 80.6473 11.0547C80.6161 12.0703 80.5848 12.9688 80.5536 13.75C80.538 14.5157 80.4442 15.3907 80.2723 16.375C80.1005 17.3438 79.8505 18.1719 79.5223 18.8594C79.2098 19.5313 78.7177 20.1328 78.0458 20.6641C77.3895 21.211 76.5927 21.5703 75.6552 21.7422Z" fill="white"/>
<path d="M88.1239 7.75003L89.1786 7.98441C89.2098 8.48441 89.2567 9.07034 89.3192 9.74222C89.3973 10.4141 89.4833 11.1797 89.577 12.0391C90.202 11.8516 90.7958 11.7578 91.3583 11.7578C92.0302 11.7578 92.6552 11.8907 93.2333 12.1563C93.8114 12.4063 94.3036 12.7422 94.7098 13.1641C95.1161 13.586 95.4364 14.0703 95.6708 14.6172C95.9052 15.1485 96.0223 15.6953 96.0223 16.2578C96.0223 16.8047 95.9052 17.3047 95.6708 17.7578C95.4364 18.211 95.1239 18.6016 94.7333 18.9297C94.3427 19.2422 93.8895 19.4844 93.3739 19.6563C92.8583 19.8438 92.3114 19.9375 91.7333 19.9375C91.6239 19.9375 91.3817 19.9297 91.0067 19.9141C90.6317 19.8985 90.2333 19.8594 89.8114 19.7969C89.4052 19.75 89.038 19.6797 88.7098 19.586C88.3817 19.4922 88.2098 19.3594 88.1942 19.1875C88.1942 18.9219 88.1864 18.5625 88.1708 18.1094C88.1708 17.6407 88.163 17.125 88.1473 16.5625C88.1473 16 88.1395 15.4141 88.1239 14.8047C88.1083 14.1797 88.0927 13.5782 88.077 13C88.077 12.4219 88.0692 11.8907 88.0536 11.4063C88.0536 10.9219 88.0536 10.5391 88.0536 10.2578C88.0536 9.38284 88.077 8.54691 88.1239 7.75003ZM89.788 13.4922L89.577 18.2032C90.202 18.4219 90.7958 18.5313 91.3583 18.5313C91.7958 18.5313 92.1942 18.461 92.5536 18.3203C92.9286 18.1641 93.2411 17.9688 93.4911 17.7344C93.7411 17.4844 93.9364 17.2032 94.077 16.8907C94.2177 16.5782 94.288 16.25 94.288 15.9063C94.288 15.5625 94.2177 15.2422 94.077 14.9453C93.9364 14.6328 93.7255 14.3594 93.4442 14.125C93.163 13.8907 92.8192 13.711 92.413 13.586C92.0067 13.4453 91.5458 13.375 91.0302 13.375C90.8583 13.375 90.6708 13.3907 90.4677 13.4219C90.2645 13.4375 90.038 13.461 89.788 13.4922Z" fill="white"/>
<path d="M105.491 7.46878L105.843 20.0547C105.686 20.5235 105.421 20.7578 105.046 20.7578C104.78 20.7578 104.515 20.6485 104.249 20.4297C103.999 20.211 103.843 19.9453 103.78 19.6328L104.015 14.5469C103.358 14.9688 102.679 15.1875 101.975 15.2032C101.382 17.1563 100.632 18.586 99.7255 19.4922C98.8348 20.3985 97.4052 21.125 95.4364 21.6719L95.0614 20.6641C97.9833 19.9297 99.6473 18 100.054 14.875C99.3036 14.5625 98.6786 14.086 98.1786 13.4453C97.6942 12.8047 97.452 12.0703 97.452 11.2422C97.452 9.58597 97.8739 8.48441 98.7177 7.93753C99.5614 7.39066 100.897 7.11722 102.725 7.11722C103.679 7.11722 104.6 7.23441 105.491 7.46878ZM104.202 12.5782L104.085 8.87503C103.538 8.70316 102.733 8.61722 101.671 8.61722C100.921 8.61722 100.28 8.78909 99.7489 9.13284C99.2177 9.46097 98.952 10 98.952 10.75C98.952 11.5938 99.288 12.3203 99.9598 12.9297C100.632 13.5235 101.366 13.8203 102.163 13.8203C103.1 13.8203 103.78 13.4063 104.202 12.5782Z" fill="white"/>
<path d="M126.14 22.6328L125.085 22.3985C124.944 21.211 124.702 20.2422 124.358 19.4922C123.061 19.3985 121.765 19.3516 120.468 19.3516C119.358 19.3516 117.71 19.3985 115.522 19.4922C115.429 19.8203 115.249 20.961 114.983 22.9141L113.975 22.8203C113.663 21.1485 113.507 19.711 113.507 18.5078C113.507 18.4453 113.507 18.336 113.507 18.1797C113.522 18.0235 113.53 17.9063 113.53 17.8282C113.546 17.8282 113.804 17.8282 114.304 17.8282C114.804 17.8125 115.061 17.8047 115.077 17.8047C115.483 16.9766 115.811 16.086 116.061 15.1328C116.327 14.1641 116.507 13.1328 116.6 12.0391C116.694 10.9297 116.757 9.96097 116.788 9.13284C116.819 8.28909 116.835 7.21878 116.835 5.92191C116.835 4.62503 116.843 3.65628 116.858 3.01566C117.952 2.93753 120.39 2.89847 124.171 2.89847L124.686 17.5938C124.936 17.625 125.194 17.6485 125.46 17.6641C125.725 17.6797 125.983 17.6953 126.233 17.711C126.186 18.0391 126.163 18.4453 126.163 18.9297C126.163 19.1797 126.171 19.5703 126.186 20.1016C126.202 20.6485 126.21 21.0547 126.21 21.3203C126.21 21.8516 126.186 22.2891 126.14 22.6328ZM116.952 17.6641C117.374 17.6641 118.007 17.6797 118.85 17.711C119.694 17.7266 120.319 17.7344 120.725 17.7344C121.319 17.7344 121.936 17.711 122.577 17.6641C122.608 16.6797 122.624 15.1407 122.624 13.0469V8.38284C122.624 6.52347 122.64 5.14066 122.671 4.23441C122.233 4.20316 121.905 4.18753 121.686 4.18753C121.327 4.18753 120.804 4.21097 120.116 4.25784C119.444 4.30472 118.991 4.33597 118.757 4.35159C118.71 5.05472 118.655 6.16409 118.593 7.67972C118.53 9.17972 118.468 10.3438 118.405 11.1719C118.343 12 118.186 13.0313 117.936 14.2657C117.702 15.4844 117.374 16.6172 116.952 17.6641Z" fill="white"/>
<path d="M127.733 7.75003L128.788 7.98441C128.819 8.48441 128.866 9.07034 128.929 9.74222C129.007 10.4141 129.093 11.1797 129.186 12.0391C129.811 11.8516 130.405 11.7578 130.968 11.7578C131.64 11.7578 132.265 11.8907 132.843 12.1563C133.421 12.4063 133.913 12.7422 134.319 13.1641C134.725 13.586 135.046 14.0703 135.28 14.6172C135.515 15.1485 135.632 15.6953 135.632 16.2578C135.632 16.8047 135.522 17.3047 135.304 17.7578C135.1 18.211 134.804 18.6016 134.413 18.9297C134.038 19.2422 133.585 19.4844 133.054 19.6563C132.538 19.8438 131.968 19.9375 131.343 19.9375C130.968 19.9375 130.569 19.9141 130.147 19.8672C129.725 19.836 129.343 19.7891 128.999 19.7266C128.655 19.6641 128.366 19.5938 128.132 19.5157C127.913 19.4219 127.804 19.3203 127.804 19.211C127.804 18.961 127.796 18.6016 127.78 18.1328C127.78 17.6641 127.772 17.1485 127.757 16.586C127.757 16.0235 127.749 15.4297 127.733 14.8047C127.718 14.1797 127.702 13.5782 127.686 13C127.686 12.4219 127.679 11.8985 127.663 11.4297C127.663 10.9453 127.663 10.5547 127.663 10.2578C127.663 9.38284 127.686 8.54691 127.733 7.75003ZM129.397 13.4922L129.186 18.2032C129.811 18.4219 130.405 18.5313 130.968 18.5313C131.405 18.5313 131.804 18.461 132.163 18.3203C132.538 18.1641 132.85 17.9688 133.1 17.7344C133.35 17.4844 133.546 17.2032 133.686 16.8907C133.827 16.5782 133.897 16.25 133.897 15.9063C133.897 15.5625 133.827 15.2422 133.686 14.9453C133.546 14.6328 133.335 14.3594 133.054 14.125C132.772 13.8907 132.429 13.711 132.022 13.586C131.616 13.4453 131.155 13.375 130.64 13.375C130.468 13.375 130.28 13.3907 130.077 13.4219C129.874 13.4375 129.647 13.461 129.397 13.4922ZM136.71 7.67972L137.765 7.91409C137.874 9.14847 137.991 10.7032 138.116 12.5782C138.241 14.4375 138.374 16.6328 138.515 19.1641C138.374 19.6328 138.1 19.8672 137.694 19.8672C137.413 19.8672 137.14 19.7578 136.874 19.5391C136.624 19.3047 136.468 19.0235 136.405 18.6953C136.421 18.461 136.429 18.0782 136.429 17.5469C136.444 17.0157 136.46 16.4063 136.475 15.7188C136.491 15.0313 136.507 14.2969 136.522 13.5157C136.538 12.7344 136.554 11.9766 136.569 11.2422C136.585 10.5078 136.6 9.82816 136.616 9.20316C136.647 8.56253 136.679 8.05472 136.71 7.67972Z" fill="white"/>
<path d="M147.421 7.75003L148.475 7.98441L149.015 19.3516C148.874 19.8203 148.6 20.0547 148.194 20.0547C147.913 20.0547 147.64 19.9375 147.374 19.7032C147.108 19.4844 146.944 19.211 146.882 18.8828C146.882 18.836 146.952 17.5157 147.093 14.9219V14.7344C146.655 14.7032 146.007 14.6875 145.147 14.6875C143.85 14.6875 142.874 14.6485 142.218 14.5703C142.296 15.4766 142.397 16.9375 142.522 18.9532C142.382 19.4375 142.108 19.6797 141.702 19.6797C141.421 19.6797 141.147 19.5703 140.882 19.3516C140.632 19.1172 140.475 18.836 140.413 18.5078C140.46 17.7266 140.483 16.9453 140.483 16.1641C140.483 15.6641 140.475 14.9141 140.46 13.9141C140.444 12.9141 140.436 12.1719 140.436 11.6875C140.436 10.1875 140.483 8.92972 140.577 7.91409L141.632 8.17191C141.944 11.5625 142.108 13.3047 142.124 13.3985C144.796 13.5391 146.171 13.6094 146.249 13.6094C146.89 13.6094 147.21 13.5703 147.21 13.4922C147.21 13.1797 147.241 12.1875 147.304 10.5157C147.366 8.84378 147.405 7.92191 147.421 7.75003Z" fill="white"/>
<path d="M160.358 17.3594L160.593 18.3907C159.905 18.6407 158.882 18.9219 157.522 19.2344C156.179 19.5313 155.179 19.6797 154.522 19.6797C153.85 19.6797 153.265 19.461 152.765 19.0235C152.265 18.5703 151.89 18 151.64 17.3125C151.39 16.6094 151.202 15.9219 151.077 15.25C150.968 14.5625 150.913 13.8907 150.913 13.2344C150.913 9.32816 152.679 7.37503 156.21 7.37503C157.054 7.37503 157.796 7.64847 158.436 8.19534C159.077 8.72659 159.397 9.42191 159.397 10.2813C159.397 10.75 159.265 11.1641 158.999 11.5235C158.749 11.8828 158.436 12.1719 158.061 12.3907C157.702 12.5938 157.233 12.7813 156.655 12.9532C156.093 13.125 155.593 13.25 155.155 13.3282C154.718 13.4063 154.194 13.4922 153.585 13.586C152.975 13.6797 152.554 13.75 152.319 13.7969C152.335 14.25 152.358 14.6485 152.39 14.9922C152.436 15.336 152.515 15.711 152.624 16.1172C152.749 16.5078 152.905 16.836 153.093 17.1016C153.296 17.3516 153.569 17.5625 153.913 17.7344C154.257 17.9063 154.663 17.9922 155.132 17.9922C155.694 17.9922 156.382 17.9453 157.194 17.8516C158.007 17.7422 158.725 17.6328 159.35 17.5235C159.991 17.4141 160.327 17.3594 160.358 17.3594ZM152.413 12.3438C154.538 11.7344 156.28 11.0938 157.64 10.4219C157.53 9.90628 157.382 9.53128 157.194 9.29691C157.007 9.06253 156.725 8.94534 156.35 8.94534C155.397 8.94534 154.53 9.27347 153.749 9.92972C152.983 10.586 152.538 11.3907 152.413 12.3438Z" fill="white"/>
<path d="M161.811 7.30472L163.124 7.53909C163.124 7.86722 163.132 8.10941 163.147 8.26566C164.007 7.71878 164.874 7.44534 165.749 7.44534C167.171 7.44534 168.28 8.05472 169.077 9.27347C169.874 10.4922 170.272 11.875 170.272 13.4219C170.272 14.2032 170.21 14.9532 170.085 15.6719C169.975 16.375 169.772 17.1016 169.475 17.8516C169.179 18.586 168.718 19.1797 168.093 19.6328C167.483 20.0703 166.741 20.2891 165.866 20.2891C165.038 20.2891 164.241 20.0703 163.475 19.6328C163.538 22.3672 163.593 24.3985 163.64 25.7266C163.499 26.211 163.225 26.4532 162.819 26.4532C162.538 26.4532 162.265 26.336 161.999 26.1016C161.749 25.8828 161.593 25.6094 161.53 25.2813L161.811 7.30472ZM163.335 9.78909L163.405 17.3594C163.593 17.7344 163.882 18.0391 164.272 18.2735C164.663 18.4922 165.093 18.6016 165.561 18.6016C166.171 18.6016 166.686 18.4063 167.108 18.0157C167.546 17.625 167.85 17.1094 168.022 16.4688C168.21 15.8125 168.335 15.2032 168.397 14.6407C168.475 14.0782 168.515 13.4844 168.515 12.8594C168.515 10.2032 167.616 8.87503 165.819 8.87503C165.241 8.87503 164.702 8.96097 164.202 9.13284C163.718 9.28909 163.429 9.50784 163.335 9.78909Z" fill="white"/>
</svg>
