<svg width="24" height="24" viewBox="0 0 24 24" fill="none" xmlns="http://www.w3.org/2000/svg">
<path d="M12 20.25H16.75V21.75H12C6.61807 21.75 2.25 17.3819 2.25 12C2.25 6.61807 6.61807 2.25 12 2.25C17.3819 2.25 21.75 6.61807 21.75 12V13.43C21.75 15.2684 20.3255 16.75 18.5 16.75C17.3882 16.75 16.3439 16.2068 15.7419 15.3826L15.5687 15.1454L15.3622 15.3542C14.508 16.2179 13.3115 16.75 12 16.75C9.37807 16.75 7.25 14.6219 7.25 12C7.25 9.37807 9.37807 7.25 12 7.25C14.6219 7.25 16.75 9.37807 16.75 12V13.43C16.75 13.8981 16.9587 14.3498 17.2716 14.6825C17.5846 15.0153 18.0221 15.25 18.5 15.25C18.9779 15.25 19.4154 15.0153 19.7284 14.6825C20.0413 14.3498 20.25 13.8981 20.25 13.43V12C20.25 7.52193 16.4781 3.75 12 3.75C7.52193 3.75 3.75 7.52193 3.75 12C3.75 16.4781 7.52193 20.25 12 20.25ZM8.75 12C8.75 13.7981 10.2019 15.25 12 15.25C13.7981 15.25 15.25 13.7981 15.25 12C15.25 10.2019 13.7981 8.75 12 8.75C10.2019 8.75 8.75 10.2019 8.75 12Z" fill="white" stroke="black" stroke-width="0.5"/>
</svg>
