<svg width="21" height="21" viewBox="0 0 21 21" fill="none" xmlns="http://www.w3.org/2000/svg">
<path d="M16.01 18.5H4.99C3.6148 18.5 2.5 17.3852 2.5 16.01V4.99C2.5 3.6148 3.6148 2.5 4.99 2.5H16.01C17.3852 2.5 18.5 3.6148 18.5 4.99V16.01C18.5 17.3852 17.3852 18.5 16.01 18.5Z" stroke="#FEFEFE" stroke-miterlimit="1" stroke-linecap="round" stroke-linejoin="round"/>
<path d="M10.4999 14.4467C12.6796 14.4467 14.4466 12.6797 14.4466 10.5C14.4466 8.32034 12.6796 6.55334 10.4999 6.55334C8.32022 6.55334 6.55322 8.32034 6.55322 10.5C6.55322 12.6797 8.32022 14.4467 10.4999 14.4467Z" stroke="#FEFEFE" stroke-miterlimit="1" stroke-linecap="round" stroke-linejoin="round"/>
<path d="M15.14 7.11329C15.8322 7.11329 16.3933 6.55217 16.3933 5.85999C16.3933 5.16781 15.8322 4.60669 15.14 4.60669C14.4478 4.60669 13.8867 5.16781 13.8867 5.85999C13.8867 6.55217 14.4478 7.11329 15.14 7.11329Z" fill="#FEFEFE"/>
</svg>
