<svg width="19" height="19" viewBox="0 0 19 19" fill="none" xmlns="http://www.w3.org/2000/svg">
<path d="M6.76769 9.35785C6.85669 9.28655 7.92139 7.88925 8.01969 7.79305C8.11799 7.69685 8.1494 7.62085 8.2131 7.50185C8.2769 7.38285 8.23909 7.26135 8.18479 7.15325C8.13049 7.04515 7.6905 5.99905 7.5074 5.57285C7.3291 5.15775 7.1624 5.17855 7.0369 5.14935C6.9177 5.12165 6.78149 5.09525 6.64539 5.07005C6.50929 5.04485 6.28969 5.05325 6.10899 5.21605C5.92829 5.37885 5.41639 5.75825 5.44819 6.72875C5.47989 7.69925 6.2422 8.77215 6.3486 8.92265C6.455 9.07315 7.85769 11.3121 9.93389 12.5451C10.4277 12.8384 10.812 13.0301 11.1115 13.1758C11.6055 13.4163 12.0499 13.4775 12.4001 13.4919C12.7905 13.5079 13.5925 13.2384 13.7476 12.8093C13.9027 12.3802 13.8898 11.9854 13.836 11.8937C13.7822 11.802 13.6446 11.7275 13.4372 11.591C13.2298 11.4545 12.2104 10.7918 12.021 10.6914C11.8317 10.591 11.6945 10.5329 11.5648 10.7051C11.4352 10.8773 9.97069 12.3124 9.85589 12.422" stroke="#FEFEFE" stroke-miterlimit="1" stroke-linecap="round" stroke-linejoin="round"/>
<path d="M18 9.3559C18 13.9708 14.1944 17.7118 9.5 17.7118C8.0333 17.7118 6.6534 17.3466 5.4492 16.7037C4.8103 16.8186 1 18 1 18C1 18 2.0552 14.7441 2.315 13.8225C1.4822 12.5306 1 10.9986 1 9.3559C1 4.7411 4.8056 1 9.5 1C14.1944 1 18 4.7411 18 9.3559Z" stroke="#FEFEFE" stroke-miterlimit="1" stroke-linecap="round" stroke-linejoin="round"/>
</svg>
