<svg width="22" height="22" viewBox="0 0 22 22" fill="none" xmlns="http://www.w3.org/2000/svg">
<g clip-path="url(#clip0)">
<path d="M11.1175 21.1555C16.6403 21.1763 21.1342 16.716 21.1551 11.1932C21.1759 5.67039 16.7156 1.1764 11.1928 1.15559C5.66999 1.13479 1.176 5.59504 1.1552 11.1178C1.13439 16.6407 5.59464 21.1346 11.1175 21.1555Z" stroke="#FEFEFE" stroke-miterlimit="1" stroke-linecap="round" stroke-linejoin="round"/>
<path d="M10.1435 15.1422C7.86945 15.0937 7.09279 15.055 6.61575 14.9595C6.29298 14.8961 6.01281 14.7568 5.80776 14.5556C5.64923 14.4033 5.52361 14.1714 5.42672 13.8498C5.34353 13.582 5.31157 13.3593 5.26691 12.8154C5.19994 11.5881 5.18672 10.5848 5.27954 9.46414C5.35497 8.84542 5.39324 8.11066 5.88045 7.68379C6.11051 7.48406 6.37779 7.35586 6.67749 7.30369C7.1457 7.22085 9.13944 7.16146 11.2032 7.16924C13.2623 7.177 15.2599 7.25142 15.728 7.33779C16.102 7.4061 16.4521 7.60782 16.6572 7.86709C17.0978 8.53256 17.1025 9.35788 17.145 10.0036C17.1624 10.3113 17.1559 12.058 17.1361 12.3656C17.0623 13.3857 17.0046 13.7464 16.8441 14.1201C16.7448 14.3561 16.6604 14.4805 16.5145 14.6181C16.2858 14.8299 15.9947 14.9702 15.68 15.0205C13.7114 15.1539 12.0401 15.1783 10.1435 15.1422ZM13.1711 11.1537C12.0783 10.5924 11.259 10.0726 10.161 9.53363L10.149 12.7334C11.2511 12.1538 12.271 11.6228 13.1757 11.1493L13.1711 11.1537Z" stroke="#FEFEFE" stroke-miterlimit="1" stroke-linecap="round" stroke-linejoin="round"/>
</g>
<defs>
<clipPath id="clip0">
<rect width="21" height="21" fill="white" transform="translate(0.694824 0.615967) rotate(0.215861)"/>
</clipPath>
</defs>
</svg>
